<?xml version="1.0" encoding="UTF-8"?>
<svg width="700pt" height="700pt" version="1.1" viewBox="0 0 700 700"  stroke="currentColor" xmlns="http://www.w3.org/2000/svg" xmlns:xlink="http://www.w3.org/1999/xlink">

  <path d="m516.6 300.82c0-28.699-23.363-52.062-52.062-52.062-28.699 0-52.062 23.363-52.062 52.062 0 25.156 17.938 46.156 41.648 51.012v53.113c0 40.207-32.68 72.887-72.887 72.887s-72.887-32.68-72.887-72.887v-58.625l57.574-67.156c0.69922-0.83203 1.2695-1.707 1.8828-2.582 0.21875-0.26172 0.39453-0.52344 0.61328-0.83203 1.2266-1.8828 2.2734-3.8516 3.1055-5.9492l37.188-99.707c10.414-29.793-1.1367-62.344-27.562-79.801-1.1797-16.145-14.699-28.918-31.105-28.918s-31.238 14-31.238 31.238c0 17.238 14 31.238 31.238 31.238 10.062 0 19.031-4.8125 24.762-12.25 14.789 12.773 20.781 32.945 14.305 51.406l-37.102 99.488s-0.17578 0.39453-0.26172 0.57031c-21.133 14.699-42.613 16.93-53.727 16.93-23.887 0-42.176-8.9688-53.727-16.93-0.085937-0.21875-0.21875-0.39453-0.26172-0.57031l-37.055-99.312c-6.5195-18.637-0.52344-38.852 14.262-51.625 5.7305 7.4375 14.656 12.25 24.762 12.25 17.238 0 31.238-14 31.238-31.238s-14-31.238-31.238-31.238c-17.238 0-29.926 12.773-31.105 28.918-26.426 17.457-37.977 50.008-27.477 80.02l37.145 99.531c1.2695 3.457 3.1484 6.6055 5.5547 9.4062l57.574 67.156v58.625c0 51.668 42.043 93.711 93.711 93.711s93.711-42.043 93.711-93.711v-53.113c23.711-4.8555 41.648-25.855 41.648-51.012zm-166.6-197.84c-5.7305 0-10.414-4.6797-10.414-10.414 0-5.7305 4.6797-10.414 10.414-10.414 5.7305 0 10.414 4.6797 10.414 10.414 0 5.7305-4.6797 10.414-10.414 10.414zm-104.12-20.824c5.7305 0 10.414 4.6797 10.414 10.414 0 5.7305-4.6797 10.414-10.414 10.414-5.7305 0-10.414-4.6797-10.414-10.414 0-5.7305 4.6797-10.414 10.414-10.414zm76.344 215.99-24.281 28.305-24.238-28.262c7.4375 1.6172 15.531 2.625 24.238 2.625 5.9922 0 14.48-0.52344 24.281-2.668zm142.32 33.906c-17.238 0-31.238-14-31.238-31.238s14-31.238 31.238-31.238c17.238 0 31.238 14 31.238 31.238s-14 31.238-31.238 31.238z"/>
  <path d="m464.54 285.21c-20.082 0-20.125 31.238 0 31.238s20.125-31.238 0-31.238z"/>

</svg>
